<svg width="87" height="94" viewBox="0 0 87 94" fill="none" xmlns="http://www.w3.org/2000/svg">
<path d="M44.3472 0.0227273C48.8472 0.189394 53.3889 1.02273 57.9722 2.52273C62.6389 3.93939 66.9306 6.27273 70.8472 9.52273C74.7639 12.6894 78.0972 16.8144 80.8472 21.8977C83.5972 26.8977 85.3056 33.0227 85.9722 40.2727C86.5556 46.1894 85.8056 52.0644 83.7222 57.8977C81.7222 63.6477 78.9306 68.9394 75.3472 73.7727C71.7639 78.6061 67.6389 82.7311 62.9722 86.1477C58.3056 89.4811 53.6389 91.6894 48.9722 92.7727C46.1389 93.4394 43.0139 93.5227 39.5972 93.0227C36.2639 92.4394 32.8472 91.3977 29.3472 89.8977C25.9306 88.3144 22.5556 86.3144 19.2222 83.8977C15.9722 81.4811 13.0139 78.7311 10.3472 75.6477C7.68056 72.4811 5.43056 69.0644 3.59722 65.3977C1.84722 61.7311 0.763889 57.8977 0.347222 53.8977C-0.0694444 50.5644 -0.111111 46.8977 0.222222 42.8977C0.638889 38.8144 1.43056 34.7727 2.59722 30.7727C3.84722 26.6894 5.55556 22.7727 7.72222 19.0227C9.97222 15.1894 12.8056 11.8561 16.2222 9.02273C19.6389 6.10606 23.6389 3.85606 28.2222 2.27273C32.8889 0.606061 38.2639 -0.143939 44.3472 0.0227273ZM21.9722 50.6477C20.8056 59.5644 21.6389 66.7311 24.4722 72.1477C27.3889 77.5644 31.7639 80.8561 37.5972 82.0227C40.4306 82.6061 43.1389 82.0227 45.7222 80.2727C48.3889 78.4394 50.8056 75.8144 52.9722 72.3977C55.1389 68.9811 57.0139 64.9811 58.5972 60.3977C60.1806 55.8144 61.3472 51.0227 62.0972 46.0227C62.8472 41.0227 62.8889 36.5227 62.2222 32.5227C61.6389 28.4394 60.5972 24.9811 59.0972 22.1477C57.5972 19.2311 55.7639 16.9811 53.5972 15.3977C51.5139 13.8144 49.3472 12.9394 47.0972 12.7727C43.1806 12.5227 39.7639 13.5644 36.8472 15.8977C33.9306 18.1477 31.4722 21.1061 29.4722 24.7727C27.4722 28.4394 25.8472 32.5644 24.5972 37.1477C23.4306 41.7311 22.5556 46.2311 21.9722 50.6477Z" fill="white"/>
</svg>
