<svg width="189" height="94" viewBox="0 0 189 94" fill="none" xmlns="http://www.w3.org/2000/svg">
<path d="M0 36.0852C1.91667 36.2519 3.60417 36.3769 5.0625 36.4602C6.5625 36.5019 7.8125 36.5644 8.8125 36.6477C9.97917 36.7311 11 36.7936 11.875 36.8352C12.7917 36.8769 13.9583 36.8769 15.375 36.8352C16.5833 36.8352 18.125 36.8144 20 36.7727C21.9167 36.6894 24.25 36.5644 27 36.3977L26.5 45.0852C25.2917 46.2936 24.2083 47.4186 23.25 48.4602C22.3333 49.5019 21.5208 50.3977 20.8125 51.1477C20.0208 52.0227 19.3125 52.8144 18.6875 53.5227C18.0625 54.2727 17.3542 55.1686 16.5625 56.2102C15.8542 57.1269 15 58.2519 14 59.5852C13 60.8769 11.8542 62.3977 10.5625 64.1477C12.8542 64.0227 14.7292 63.8977 16.1875 63.7727C17.6458 63.6061 18.7917 63.4602 19.625 63.3352C20.625 63.1686 21.3542 63.0436 21.8125 62.9602C22.2292 62.7936 22.7083 62.4394 23.25 61.8977C23.7083 61.4394 24.2708 60.7519 24.9375 59.8352C25.6042 58.9186 26.3542 57.6686 27.1875 56.0852C27.1875 57.3769 27.1875 58.4811 27.1875 59.3977C27.2292 60.2727 27.25 61.0019 27.25 61.5852V64.7102C27.25 65.1686 27.25 65.7311 27.25 66.3977C27.2917 67.0644 27.3333 67.8144 27.375 68.6477C25.75 68.4394 24.2708 68.2936 22.9375 68.2102C21.6042 68.0852 20.4583 68.0019 19.5 67.9602C18.375 67.9186 17.3542 67.9186 16.4375 67.9602C15.5208 68.0436 14.375 68.1269 13 68.2102C11.8333 68.2936 10.3958 68.3769 8.6875 68.4602C6.97917 68.5436 4.95833 68.6477 2.625 68.7727L1.25 62.1477C2 61.8144 2.89583 61.1686 3.9375 60.2102C4.97917 59.2519 5.97917 58.2727 6.9375 57.2727C8.02083 56.1061 9.16667 54.8352 10.375 53.4602C11.5417 52.0852 12.6875 50.7102 13.8125 49.3352C14.7708 48.1686 15.7708 46.9602 16.8125 45.7102C17.8958 44.4602 18.8333 43.3561 19.625 42.3977C17.375 42.4811 15.5208 42.6477 14.0625 42.8977C12.6042 43.1061 11.4583 43.3144 10.625 43.5227C9.625 43.7727 8.875 44.0644 8.375 44.3977C7.91667 44.7727 7.35417 45.3352 6.6875 46.0852C6.10417 46.7102 5.39583 47.5644 4.5625 48.6477C3.72917 49.6894 2.77083 51.0436 1.6875 52.7102C1.6875 51.3352 1.66667 50.1061 1.625 49.0227C1.58333 47.8977 1.54167 46.9602 1.5 46.2102C1.41667 45.3352 1.35417 44.5644 1.3125 43.8977C1.22917 43.2311 1.125 42.5019 1 41.7102C0.916667 41.0019 0.770833 40.1894 0.5625 39.2727C0.395833 38.3144 0.208333 37.2519 0 36.0852Z" fill="white"/>
<path d="M45.8125 62.2102C46.9792 62.2102 48.0625 62.0852 49.0625 61.8352C49.8958 61.6269 50.6875 61.2936 51.4375 60.8352C52.2292 60.3352 52.75 59.6061 53 58.6477C53.8333 58.8144 54.5417 58.9602 55.125 59.0852C55.7083 59.1686 56.2083 59.2519 56.625 59.3352C57.0833 59.4602 57.4792 59.5436 57.8125 59.5852C58.1458 59.6686 58.5417 59.7519 59 59.8352C59.4167 59.9186 59.9167 60.0227 60.5 60.1477C61.125 60.2311 61.8542 60.3561 62.6875 60.5227C62.0625 60.4394 61.4167 60.5019 60.75 60.7102C60.125 60.9186 59.5208 61.1477 58.9375 61.3977C58.2708 61.6894 57.6458 62.0436 57.0625 62.4602C56.6875 62.7102 56.25 63.0852 55.75 63.5852C55.2917 64.0852 54.625 64.5644 53.75 65.0227C52.875 65.4811 51.7083 65.8769 50.25 66.2102C48.8333 66.5019 47 66.6061 44.75 66.5227C42.0417 66.4394 39.7708 65.9602 37.9375 65.0852C36.1042 64.1686 34.625 63.0644 33.5 61.7727C32.375 60.4394 31.5625 59.0019 31.0625 57.4602C30.5625 55.9186 30.2917 54.4811 30.25 53.1477C30.2083 51.8144 30.6042 50.4186 31.4375 48.9602C32.2708 47.5019 33.4375 46.1686 34.9375 44.9602C36.4792 43.7519 38.3333 42.7727 40.5 42.0227C42.6667 41.2311 45.0417 40.8352 47.625 40.8352C49.125 40.8352 50.5 41.0227 51.75 41.3977C53.0417 41.7311 54.2083 42.1894 55.25 42.7727C56.3333 43.3561 57.2708 44.0227 58.0625 44.7727C58.8542 45.4811 59.5208 46.2102 60.0625 46.9602C60.6042 47.7519 61.0625 48.5852 61.4375 49.4602C61.7708 50.2102 62.0417 51.0644 62.25 52.0227C62.4583 52.9811 62.5208 53.9602 62.4375 54.9602C59.2708 55.0436 56.7083 55.1061 54.75 55.1477C52.8333 55.1894 51.3333 55.2102 50.25 55.2102H45.3125C44.5625 55.2102 43.5833 55.2311 42.375 55.2727C41.1667 55.3144 39.6875 55.3769 37.9375 55.4602C38.1458 57.1269 38.6667 58.4186 39.5 59.3352C40.375 60.2102 41.2917 60.8769 42.25 61.3352C43.3333 61.8352 44.5208 62.1269 45.8125 62.2102ZM40.1875 50.9602C41.5208 51.0436 42.625 51.1061 43.5 51.1477C44.4167 51.1894 45.1667 51.2311 45.75 51.2727C46.375 51.3144 46.875 51.3352 47.25 51.3352H48.8125C49.8542 51.3352 51.7917 51.2727 54.625 51.1477C54.5 49.3144 54.1042 47.9186 53.4375 46.9602C52.8125 46.0019 52.1458 45.2936 51.4375 44.8352C50.6042 44.3352 49.6875 44.0436 48.6875 43.9602C45.9792 44.0019 43.9583 44.5644 42.625 45.6477C41.3333 46.7311 40.5208 48.5019 40.1875 50.9602Z" fill="white"/>
<path d="M64.3125 42.3352C65.1042 42.3769 65.8125 42.3977 66.4375 42.3977C67.1042 42.3561 67.6667 42.3144 68.125 42.2727C68.6667 42.2311 69.1458 42.1894 69.5625 42.1477C70.1875 42.0644 70.8333 41.9602 71.5 41.8352C72.0833 41.7519 72.6875 41.6477 73.3125 41.5227C73.9792 41.3561 74.625 41.1686 75.25 40.9602C75 41.5852 74.7917 42.1269 74.625 42.5852C74.4583 43.0436 74.3333 43.4394 74.25 43.7727C74.125 44.1477 74.0625 44.4602 74.0625 44.7102C74.0208 45.0019 74 45.3561 74 45.7727C73.9583 46.4811 73.9583 47.6269 74 49.2102C76.1667 47.3352 77.9792 45.8769 79.4375 44.8352C80.9375 43.7936 82.125 42.9811 83 42.3977C84.0417 41.7311 84.8542 41.2936 85.4375 41.0852C86.9792 40.8352 88.3333 41.1894 89.5 42.1477C90 42.5644 90.4792 43.1269 90.9375 43.8352C91.3958 44.5019 91.7917 45.3977 92.125 46.5227C92.4583 47.6477 92.7083 49.0019 92.875 50.5852C93.0417 52.1269 93.0625 53.9811 92.9375 56.1477C92.0625 56.2311 91.2708 56.3144 90.5625 56.3977C89.8958 56.4811 89.3333 56.5436 88.875 56.5852C88.3333 56.6686 87.8333 56.7102 87.375 56.7102L85.6875 56.8977C85.1042 56.9811 84.375 57.0644 83.5 57.1477C82.6667 57.1894 81.6458 57.2727 80.4375 57.3977C82.1875 55.9811 83.3125 54.7519 83.8125 53.7102C84.3542 52.6269 84.5833 51.7311 84.5 51.0227C84.4167 50.2311 84.0417 49.5436 83.375 48.9602C82.5833 48.5019 81.7292 48.3352 80.8125 48.4602C80.0208 48.5436 79.1042 48.8977 78.0625 49.5227C77.0208 50.1477 75.9167 51.3144 74.75 53.0227C74.8333 55.6894 74.9167 57.8977 75 59.6477C75.125 61.3977 75.2292 62.8144 75.3125 63.8977C75.4375 65.1477 75.5417 66.1269 75.625 66.8352C75.75 67.4602 76 68.1269 76.375 68.8352C76.6667 69.4186 77.0833 70.0644 77.625 70.7727C78.1667 71.4811 78.875 72.1894 79.75 72.8977C77.9167 72.8144 76.4167 72.8144 75.25 72.8977C74.5417 72.9394 73.9167 72.9811 73.375 73.0227C72.7917 73.1061 72.1667 73.1894 71.5 73.2727C70.9167 73.3561 70.2292 73.4394 69.4375 73.5227C68.6875 73.6477 67.8542 73.7727 66.9375 73.8977C67.2708 73.4394 67.5417 72.8977 67.75 72.2727C67.9583 71.6894 68.125 71.1269 68.25 70.5852C68.4167 69.9602 68.5417 69.3144 68.625 68.6477C68.6667 68.0644 68.6875 67.1894 68.6875 66.0227C68.7292 64.8561 68.7083 63.5436 68.625 62.0852C68.5833 60.5852 68.5208 59.0436 68.4375 57.4602C68.3542 55.8352 68.25 54.3144 68.125 52.8977C68 51.4811 67.8542 50.2519 67.6875 49.2102C67.5625 48.1269 67.4167 47.3769 67.25 46.9602C67.0417 46.4602 66.7917 45.9602 66.5 45.4602C66.25 45.0019 65.9375 44.5227 65.5625 44.0227C65.1875 43.4811 64.7708 42.9186 64.3125 42.3352Z" fill="white"/>
<path d="M146.562 0.0227273C151.062 0.189394 155.604 1.02273 160.188 2.52273C164.854 3.93939 169.146 6.27273 173.062 9.52273C176.979 12.6894 180.312 16.8144 183.062 21.8977C185.812 26.8977 187.521 33.0227 188.188 40.2727C188.771 46.1894 188.021 52.0644 185.938 57.8977C183.938 63.6477 181.146 68.9394 177.562 73.7727C173.979 78.6061 169.854 82.7311 165.188 86.1477C160.521 89.4811 155.854 91.6894 151.188 92.7727C148.354 93.4394 145.229 93.5227 141.812 93.0227C138.479 92.4394 135.062 91.3977 131.562 89.8977C128.146 88.3144 124.771 86.3144 121.438 83.8977C118.188 81.4811 115.229 78.7311 112.562 75.6477C109.896 72.4811 107.646 69.0644 105.812 65.3977C104.062 61.7311 102.979 57.8977 102.562 53.8977C102.146 50.5644 102.104 46.8977 102.438 42.8977C102.854 38.8144 103.646 34.7727 104.812 30.7727C106.062 26.6894 107.771 22.7727 109.938 19.0227C112.188 15.1894 115.021 11.8561 118.438 9.02273C121.854 6.10606 125.854 3.85606 130.438 2.27273C135.104 0.606061 140.479 -0.143939 146.562 0.0227273ZM124.188 50.6477C123.021 59.5644 123.854 66.7311 126.688 72.1477C129.604 77.5644 133.979 80.8561 139.812 82.0227C142.646 82.6061 145.354 82.0227 147.938 80.2727C150.604 78.4394 153.021 75.8144 155.188 72.3977C157.354 68.9811 159.229 64.9811 160.812 60.3977C162.396 55.8144 163.562 51.0227 164.312 46.0227C165.062 41.0227 165.104 36.5227 164.438 32.5227C163.854 28.4394 162.812 24.9811 161.312 22.1477C159.812 19.2311 157.979 16.9811 155.812 15.3977C153.729 13.8144 151.562 12.9394 149.312 12.7727C145.396 12.5227 141.979 13.5644 139.062 15.8977C136.146 18.1477 133.688 21.1061 131.688 24.7727C129.688 28.4394 128.062 32.5644 126.812 37.1477C125.646 41.7311 124.771 46.2311 124.188 50.6477Z" fill="white"/>
</svg>
